<mxfile host="app.diagrams.net" modified="2023-09-28T13:00:17.328Z" agent="Mozilla/5.0 (Windows NT 10.0; Win64; x64) AppleWebKit/537.36 (KHTML, like Gecko) Chrome/114.0.0.0 YaBrowser/23.7.5.734 Yowser/2.5 Safari/537.36" etag="PyoifhnEHxg_wmGLVw-u" version="21.8.2" type="github">
  <diagram name="Страница — 1" id="nrOMxjZL90w1FsnKQZx1">
    <mxGraphModel dx="4426" dy="2735" grid="1" gridSize="10" guides="1" tooltips="1" connect="1" arrows="1" fold="1" page="1" pageScale="1" pageWidth="827" pageHeight="1169" math="0" shadow="0">
      <root>
        <mxCell id="0" />
        <mxCell id="1" parent="0" />
        <mxCell id="I1Cy414jXjcOe27wZuvK-3" value="" style="rounded=0;whiteSpace=wrap;html=1;" vertex="1" parent="1">
          <mxGeometry x="-10" y="-80" width="900" height="1200" as="geometry" />
        </mxCell>
        <mxCell id="I1Cy414jXjcOe27wZuvK-4" value="&lt;b&gt;&lt;font style=&quot;font-size: 23px;&quot;&gt;SEARCH&lt;/font&gt;&lt;/b&gt;" style="text;html=1;strokeColor=none;fillColor=none;align=center;verticalAlign=middle;whiteSpace=wrap;rounded=0;" vertex="1" parent="1">
          <mxGeometry x="20" y="-60" width="60" height="30" as="geometry" />
        </mxCell>
        <mxCell id="I1Cy414jXjcOe27wZuvK-5" value="" style="group" vertex="1" connectable="0" parent="1">
          <mxGeometry x="169" y="10" width="490" height="320" as="geometry" />
        </mxCell>
        <mxCell id="I1Cy414jXjcOe27wZuvK-1" value="" style="rounded=1;whiteSpace=wrap;html=1;dashed=1;" vertex="1" parent="I1Cy414jXjcOe27wZuvK-5">
          <mxGeometry width="490" height="320" as="geometry" />
        </mxCell>
        <mxCell id="I1Cy414jXjcOe27wZuvK-2" value="&lt;font style=&quot;font-size: 14px;&quot;&gt;&lt;b&gt;data&lt;/b&gt;&lt;/font&gt;" style="text;html=1;strokeColor=none;fillColor=none;align=center;verticalAlign=middle;whiteSpace=wrap;rounded=0;" vertex="1" parent="I1Cy414jXjcOe27wZuvK-5">
          <mxGeometry x="10" y="10" width="60" height="30" as="geometry" />
        </mxCell>
        <mxCell id="I1Cy414jXjcOe27wZuvK-28" value="" style="rounded=1;whiteSpace=wrap;html=1;dashed=1;" vertex="1" parent="I1Cy414jXjcOe27wZuvK-5">
          <mxGeometry x="190" y="20" width="270" height="280" as="geometry" />
        </mxCell>
        <mxCell id="I1Cy414jXjcOe27wZuvK-29" value="&lt;b&gt;Network&lt;/b&gt;" style="text;html=1;strokeColor=none;fillColor=none;align=center;verticalAlign=middle;whiteSpace=wrap;rounded=0;" vertex="1" parent="I1Cy414jXjcOe27wZuvK-5">
          <mxGeometry x="211" y="30" width="60" height="30" as="geometry" />
        </mxCell>
        <mxCell id="I1Cy414jXjcOe27wZuvK-60" value="" style="group" vertex="1" connectable="0" parent="I1Cy414jXjcOe27wZuvK-5">
          <mxGeometry x="21" y="60" width="140" height="60" as="geometry" />
        </mxCell>
        <mxCell id="I1Cy414jXjcOe27wZuvK-58" value="" style="rounded=0;whiteSpace=wrap;html=1;" vertex="1" parent="I1Cy414jXjcOe27wZuvK-60">
          <mxGeometry width="140" height="60" as="geometry" />
        </mxCell>
        <mxCell id="I1Cy414jXjcOe27wZuvK-59" value="SearchRepositoryImpl" style="text;html=1;strokeColor=none;fillColor=none;align=center;verticalAlign=middle;whiteSpace=wrap;rounded=0;" vertex="1" parent="I1Cy414jXjcOe27wZuvK-60">
          <mxGeometry x="40" y="15" width="60" height="30" as="geometry" />
        </mxCell>
        <mxCell id="I1Cy414jXjcOe27wZuvK-6" value="" style="group" vertex="1" connectable="0" parent="1">
          <mxGeometry x="169" y="360" width="490" height="320" as="geometry" />
        </mxCell>
        <mxCell id="I1Cy414jXjcOe27wZuvK-7" value="" style="rounded=1;whiteSpace=wrap;html=1;dashed=1;" vertex="1" parent="I1Cy414jXjcOe27wZuvK-6">
          <mxGeometry width="490" height="320" as="geometry" />
        </mxCell>
        <mxCell id="I1Cy414jXjcOe27wZuvK-8" value="&lt;font style=&quot;font-size: 14px;&quot;&gt;&lt;b&gt;domain&lt;/b&gt;&lt;/font&gt;" style="text;html=1;strokeColor=none;fillColor=none;align=center;verticalAlign=middle;whiteSpace=wrap;rounded=0;" vertex="1" parent="I1Cy414jXjcOe27wZuvK-6">
          <mxGeometry x="21" y="20" width="60" height="30" as="geometry" />
        </mxCell>
        <mxCell id="I1Cy414jXjcOe27wZuvK-9" value="" style="group" vertex="1" connectable="0" parent="1">
          <mxGeometry x="169" y="720" width="490" height="320" as="geometry" />
        </mxCell>
        <mxCell id="I1Cy414jXjcOe27wZuvK-10" value="" style="rounded=1;whiteSpace=wrap;html=1;dashed=1;" vertex="1" parent="I1Cy414jXjcOe27wZuvK-9">
          <mxGeometry width="490" height="320" as="geometry" />
        </mxCell>
        <mxCell id="I1Cy414jXjcOe27wZuvK-11" value="&lt;font style=&quot;font-size: 14px;&quot;&gt;&lt;b&gt;presentation&lt;/b&gt;&lt;/font&gt;" style="text;html=1;strokeColor=none;fillColor=none;align=center;verticalAlign=middle;whiteSpace=wrap;rounded=0;" vertex="1" parent="I1Cy414jXjcOe27wZuvK-9">
          <mxGeometry x="31" y="20" width="60" height="30" as="geometry" />
        </mxCell>
        <mxCell id="I1Cy414jXjcOe27wZuvK-14" value="" style="group" vertex="1" connectable="0" parent="I1Cy414jXjcOe27wZuvK-9">
          <mxGeometry x="181" y="90" width="120" height="120" as="geometry" />
        </mxCell>
        <mxCell id="I1Cy414jXjcOe27wZuvK-12" value="" style="whiteSpace=wrap;html=1;aspect=fixed;" vertex="1" parent="I1Cy414jXjcOe27wZuvK-14">
          <mxGeometry width="120" height="120" as="geometry" />
        </mxCell>
        <mxCell id="I1Cy414jXjcOe27wZuvK-13" value="SearchViewModel" style="text;html=1;strokeColor=none;fillColor=none;align=center;verticalAlign=middle;whiteSpace=wrap;rounded=0;" vertex="1" parent="I1Cy414jXjcOe27wZuvK-14">
          <mxGeometry x="34" y="45" width="60" height="30" as="geometry" />
        </mxCell>
        <mxCell id="I1Cy414jXjcOe27wZuvK-30" value="" style="rounded=0;whiteSpace=wrap;html=1;" vertex="1" parent="1">
          <mxGeometry x="-880" y="-80" width="800" height="1200" as="geometry" />
        </mxCell>
        <mxCell id="I1Cy414jXjcOe27wZuvK-31" value="&lt;span style=&quot;font-size: 23px;&quot;&gt;&lt;b&gt;CORE&lt;/b&gt;&lt;/span&gt;" style="text;html=1;strokeColor=none;fillColor=none;align=center;verticalAlign=middle;whiteSpace=wrap;rounded=0;" vertex="1" parent="1">
          <mxGeometry x="-850" y="-60" width="60" height="30" as="geometry" />
        </mxCell>
        <mxCell id="I1Cy414jXjcOe27wZuvK-32" value="" style="group" vertex="1" connectable="0" parent="1">
          <mxGeometry x="-740" width="490" height="320" as="geometry" />
        </mxCell>
        <mxCell id="I1Cy414jXjcOe27wZuvK-33" value="" style="rounded=1;whiteSpace=wrap;html=1;dashed=1;" vertex="1" parent="I1Cy414jXjcOe27wZuvK-32">
          <mxGeometry width="490" height="320" as="geometry" />
        </mxCell>
        <mxCell id="I1Cy414jXjcOe27wZuvK-34" value="&lt;span style=&quot;font-size: 14px;&quot;&gt;&lt;b&gt;application&lt;/b&gt;&lt;/span&gt;" style="text;html=1;strokeColor=none;fillColor=none;align=center;verticalAlign=middle;whiteSpace=wrap;rounded=0;" vertex="1" parent="I1Cy414jXjcOe27wZuvK-32">
          <mxGeometry x="31" y="10" width="60" height="30" as="geometry" />
        </mxCell>
        <mxCell id="I1Cy414jXjcOe27wZuvK-55" value="App" style="rounded=0;whiteSpace=wrap;html=1;" vertex="1" parent="I1Cy414jXjcOe27wZuvK-32">
          <mxGeometry x="170" y="70" width="120" height="60" as="geometry" />
        </mxCell>
        <mxCell id="I1Cy414jXjcOe27wZuvK-40" value="" style="group" vertex="1" connectable="0" parent="1">
          <mxGeometry x="-740" y="350" width="490" height="320" as="geometry" />
        </mxCell>
        <mxCell id="I1Cy414jXjcOe27wZuvK-42" value="&lt;span style=&quot;font-size: 14px;&quot;&gt;&lt;b&gt;DI&lt;/b&gt;&lt;/span&gt;" style="text;html=1;strokeColor=none;fillColor=none;align=center;verticalAlign=middle;whiteSpace=wrap;rounded=0;" vertex="1" parent="I1Cy414jXjcOe27wZuvK-40">
          <mxGeometry x="10" y="20" width="60" height="30" as="geometry" />
        </mxCell>
        <mxCell id="I1Cy414jXjcOe27wZuvK-53" value="" style="group" vertex="1" connectable="0" parent="I1Cy414jXjcOe27wZuvK-40">
          <mxGeometry width="490" height="320" as="geometry" />
        </mxCell>
        <mxCell id="I1Cy414jXjcOe27wZuvK-41" value="" style="rounded=1;whiteSpace=wrap;html=1;dashed=1;" vertex="1" parent="I1Cy414jXjcOe27wZuvK-53">
          <mxGeometry width="490" height="320" as="geometry" />
        </mxCell>
        <mxCell id="I1Cy414jXjcOe27wZuvK-49" value="&lt;font style=&quot;font-size: 14px;&quot;&gt;&lt;b&gt;RepositoryModule&lt;/b&gt;&lt;/font&gt;" style="rounded=0;whiteSpace=wrap;html=1;" vertex="1" parent="I1Cy414jXjcOe27wZuvK-53">
          <mxGeometry x="30" y="60" width="160" height="90" as="geometry" />
        </mxCell>
        <mxCell id="I1Cy414jXjcOe27wZuvK-50" value="&lt;font style=&quot;font-size: 14px;&quot;&gt;&lt;b&gt;DomainModule&lt;/b&gt;&lt;/font&gt;" style="rounded=0;whiteSpace=wrap;html=1;" vertex="1" parent="I1Cy414jXjcOe27wZuvK-53">
          <mxGeometry x="30" y="200" width="160" height="90" as="geometry" />
        </mxCell>
        <mxCell id="I1Cy414jXjcOe27wZuvK-51" value="&lt;font style=&quot;font-size: 14px;&quot;&gt;&lt;b&gt;DataModule&lt;/b&gt;&lt;/font&gt;" style="rounded=0;whiteSpace=wrap;html=1;" vertex="1" parent="I1Cy414jXjcOe27wZuvK-53">
          <mxGeometry x="300" y="60" width="160" height="90" as="geometry" />
        </mxCell>
        <mxCell id="I1Cy414jXjcOe27wZuvK-52" value="&lt;font style=&quot;font-size: 14px;&quot;&gt;&lt;b&gt;ViewModelModule&lt;/b&gt;&lt;/font&gt;" style="rounded=0;whiteSpace=wrap;html=1;" vertex="1" parent="I1Cy414jXjcOe27wZuvK-53">
          <mxGeometry x="300" y="200" width="160" height="90" as="geometry" />
        </mxCell>
        <mxCell id="I1Cy414jXjcOe27wZuvK-43" value="" style="group" vertex="1" connectable="0" parent="1">
          <mxGeometry x="-740" y="720" width="490" height="320" as="geometry" />
        </mxCell>
        <mxCell id="I1Cy414jXjcOe27wZuvK-44" value="" style="rounded=1;whiteSpace=wrap;html=1;dashed=1;" vertex="1" parent="I1Cy414jXjcOe27wZuvK-43">
          <mxGeometry width="490" height="320" as="geometry" />
        </mxCell>
        <mxCell id="I1Cy414jXjcOe27wZuvK-45" value="&lt;span style=&quot;font-size: 14px;&quot;&gt;&lt;b&gt;root&lt;/b&gt;&lt;/span&gt;" style="text;html=1;strokeColor=none;fillColor=none;align=center;verticalAlign=middle;whiteSpace=wrap;rounded=0;" vertex="1" parent="I1Cy414jXjcOe27wZuvK-43">
          <mxGeometry x="31" y="10" width="60" height="30" as="geometry" />
        </mxCell>
        <mxCell id="I1Cy414jXjcOe27wZuvK-46" value="RootActivity" style="rounded=0;whiteSpace=wrap;html=1;" vertex="1" parent="I1Cy414jXjcOe27wZuvK-43">
          <mxGeometry x="185" y="130" width="120" height="60" as="geometry" />
        </mxCell>
        <mxCell id="I1Cy414jXjcOe27wZuvK-62" value="" style="endArrow=classic;html=1;rounded=0;exitX=0.5;exitY=1;exitDx=0;exitDy=0;entryX=0.47;entryY=-0.018;entryDx=0;entryDy=0;entryPerimeter=0;" edge="1" parent="1" source="I1Cy414jXjcOe27wZuvK-55" target="I1Cy414jXjcOe27wZuvK-41">
          <mxGeometry width="50" height="50" relative="1" as="geometry">
            <mxPoint x="-510" y="180" as="sourcePoint" />
            <mxPoint x="-460" y="130" as="targetPoint" />
          </mxGeometry>
        </mxCell>
        <mxCell id="I1Cy414jXjcOe27wZuvK-82" value="" style="rounded=0;whiteSpace=wrap;html=1;" vertex="1" parent="1">
          <mxGeometry x="950" y="-80" width="900" height="1360" as="geometry" />
        </mxCell>
        <mxCell id="I1Cy414jXjcOe27wZuvK-83" value="&lt;b&gt;&lt;font style=&quot;font-size: 23px;&quot;&gt;FILTER&lt;/font&gt;&lt;/b&gt;" style="text;html=1;strokeColor=none;fillColor=none;align=center;verticalAlign=middle;whiteSpace=wrap;rounded=0;" vertex="1" parent="1">
          <mxGeometry x="980" y="-60" width="60" height="30" as="geometry" />
        </mxCell>
        <mxCell id="I1Cy414jXjcOe27wZuvK-84" value="" style="group;dashed=1;" vertex="1" connectable="0" parent="1">
          <mxGeometry x="1040" y="10" width="720" height="320" as="geometry" />
        </mxCell>
        <mxCell id="I1Cy414jXjcOe27wZuvK-85" value="" style="rounded=1;whiteSpace=wrap;html=1;dashed=1;" vertex="1" parent="I1Cy414jXjcOe27wZuvK-84">
          <mxGeometry width="720" height="320" as="geometry" />
        </mxCell>
        <mxCell id="I1Cy414jXjcOe27wZuvK-86" value="&lt;font style=&quot;font-size: 14px;&quot;&gt;&lt;b&gt;data&lt;/b&gt;&lt;/font&gt;" style="text;html=1;strokeColor=none;fillColor=none;align=center;verticalAlign=middle;whiteSpace=wrap;rounded=0;" vertex="1" parent="I1Cy414jXjcOe27wZuvK-84">
          <mxGeometry x="14.693877551020407" y="10" width="88.16326530612244" height="30" as="geometry" />
        </mxCell>
        <mxCell id="I1Cy414jXjcOe27wZuvK-87" value="" style="rounded=1;whiteSpace=wrap;html=1;dashed=1;" vertex="1" parent="I1Cy414jXjcOe27wZuvK-84">
          <mxGeometry x="279.18367346938777" y="20" width="396.734693877551" height="280" as="geometry" />
        </mxCell>
        <mxCell id="I1Cy414jXjcOe27wZuvK-88" value="&lt;b&gt;storage&lt;/b&gt;" style="text;html=1;strokeColor=none;fillColor=none;align=center;verticalAlign=middle;whiteSpace=wrap;rounded=0;" vertex="1" parent="I1Cy414jXjcOe27wZuvK-84">
          <mxGeometry x="279.1808163265306" y="30" width="88.16326530612244" height="30" as="geometry" />
        </mxCell>
        <mxCell id="I1Cy414jXjcOe27wZuvK-89" value="" style="group" vertex="1" connectable="0" parent="I1Cy414jXjcOe27wZuvK-84">
          <mxGeometry x="30.857142857142854" y="60" width="205.7142857142857" height="60" as="geometry" />
        </mxCell>
        <mxCell id="I1Cy414jXjcOe27wZuvK-90" value="" style="rounded=0;whiteSpace=wrap;html=1;" vertex="1" parent="I1Cy414jXjcOe27wZuvK-89">
          <mxGeometry width="205.7142857142857" height="60" as="geometry" />
        </mxCell>
        <mxCell id="I1Cy414jXjcOe27wZuvK-91" value="FilterRepositoryImpl" style="text;html=1;strokeColor=none;fillColor=none;align=center;verticalAlign=middle;whiteSpace=wrap;rounded=0;" vertex="1" parent="I1Cy414jXjcOe27wZuvK-89">
          <mxGeometry x="58.77551020408163" y="15" width="88.16326530612244" height="30" as="geometry" />
        </mxCell>
        <mxCell id="I1Cy414jXjcOe27wZuvK-154" value="" style="group" vertex="1" connectable="0" parent="I1Cy414jXjcOe27wZuvK-84">
          <mxGeometry x="300" y="160" width="190" height="60" as="geometry" />
        </mxCell>
        <mxCell id="I1Cy414jXjcOe27wZuvK-155" value="" style="rounded=0;whiteSpace=wrap;html=1;" vertex="1" parent="I1Cy414jXjcOe27wZuvK-154">
          <mxGeometry width="166.25000000000003" height="50.00000000000001" as="geometry" />
        </mxCell>
        <mxCell id="I1Cy414jXjcOe27wZuvK-156" value="SharedPrefsStorageImpl" style="text;html=1;strokeColor=none;fillColor=none;align=center;verticalAlign=middle;whiteSpace=wrap;rounded=0;" vertex="1" parent="I1Cy414jXjcOe27wZuvK-154">
          <mxGeometry x="42.40807539682539" y="10.000000000000002" width="81.42857142857143" height="30" as="geometry" />
        </mxCell>
        <mxCell id="I1Cy414jXjcOe27wZuvK-161" value="LocalStorage - interface" style="rounded=0;whiteSpace=wrap;html=1;" vertex="1" parent="I1Cy414jXjcOe27wZuvK-84">
          <mxGeometry x="300" y="80" width="160" height="50" as="geometry" />
        </mxCell>
        <mxCell id="I1Cy414jXjcOe27wZuvK-162" value="" style="rounded=1;whiteSpace=wrap;html=1;dashed=1;" vertex="1" parent="I1Cy414jXjcOe27wZuvK-84">
          <mxGeometry x="500" y="45" width="156" height="90" as="geometry" />
        </mxCell>
        <mxCell id="I1Cy414jXjcOe27wZuvK-163" value="&lt;b&gt;Models&lt;/b&gt;" style="text;html=1;strokeColor=none;fillColor=none;align=center;verticalAlign=middle;whiteSpace=wrap;rounded=0;" vertex="1" parent="I1Cy414jXjcOe27wZuvK-84">
          <mxGeometry x="500" y="50" width="66.18563535911603" height="21.07363636363636" as="geometry" />
        </mxCell>
        <mxCell id="I1Cy414jXjcOe27wZuvK-92" value="" style="group" vertex="1" connectable="0" parent="1">
          <mxGeometry x="1040" y="360" width="730" height="320" as="geometry" />
        </mxCell>
        <mxCell id="I1Cy414jXjcOe27wZuvK-93" value="" style="rounded=1;whiteSpace=wrap;html=1;dashed=1;" vertex="1" parent="I1Cy414jXjcOe27wZuvK-92">
          <mxGeometry width="730" height="320" as="geometry" />
        </mxCell>
        <mxCell id="I1Cy414jXjcOe27wZuvK-94" value="&lt;font style=&quot;font-size: 14px;&quot;&gt;&lt;b&gt;domain&lt;/b&gt;&lt;/font&gt;" style="text;html=1;strokeColor=none;fillColor=none;align=center;verticalAlign=middle;whiteSpace=wrap;rounded=0;" vertex="1" parent="I1Cy414jXjcOe27wZuvK-92">
          <mxGeometry x="31.28571428571428" y="20" width="89.38775510204083" height="30" as="geometry" />
        </mxCell>
        <mxCell id="I1Cy414jXjcOe27wZuvK-130" value="FilterRepository - interface" style="rounded=1;whiteSpace=wrap;html=1;" vertex="1" parent="I1Cy414jXjcOe27wZuvK-92">
          <mxGeometry x="210" y="60" width="160" height="60" as="geometry" />
        </mxCell>
        <mxCell id="I1Cy414jXjcOe27wZuvK-131" value="FilterInteractor" style="ellipse;whiteSpace=wrap;html=1;" vertex="1" parent="I1Cy414jXjcOe27wZuvK-92">
          <mxGeometry x="70" y="185" width="151" height="80" as="geometry" />
        </mxCell>
        <mxCell id="I1Cy414jXjcOe27wZuvK-136" style="edgeStyle=orthogonalEdgeStyle;rounded=0;orthogonalLoop=1;jettySize=auto;html=1;exitX=0.5;exitY=0;exitDx=0;exitDy=0;endArrow=none;endFill=0;startArrow=classic;startFill=1;" edge="1" parent="I1Cy414jXjcOe27wZuvK-92" source="I1Cy414jXjcOe27wZuvK-132">
          <mxGeometry relative="1" as="geometry">
            <mxPoint x="298" y="120" as="targetPoint" />
            <Array as="points">
              <mxPoint x="336" y="150" />
              <mxPoint x="298" y="150" />
            </Array>
          </mxGeometry>
        </mxCell>
        <mxCell id="I1Cy414jXjcOe27wZuvK-132" value="GetAllCountriesUseCase" style="ellipse;whiteSpace=wrap;html=1;" vertex="1" parent="I1Cy414jXjcOe27wZuvK-92">
          <mxGeometry x="260" y="185" width="151" height="80" as="geometry" />
        </mxCell>
        <mxCell id="I1Cy414jXjcOe27wZuvK-133" value="GetRegionUseCase" style="ellipse;whiteSpace=wrap;html=1;" vertex="1" parent="I1Cy414jXjcOe27wZuvK-92">
          <mxGeometry x="450" y="185" width="151" height="80" as="geometry" />
        </mxCell>
        <mxCell id="I1Cy414jXjcOe27wZuvK-135" style="edgeStyle=orthogonalEdgeStyle;rounded=0;orthogonalLoop=1;jettySize=auto;html=1;exitX=0.5;exitY=0;exitDx=0;exitDy=0;entryX=0.55;entryY=1;entryDx=0;entryDy=0;entryPerimeter=0;startArrow=classic;startFill=1;endArrow=none;endFill=0;" edge="1" parent="I1Cy414jXjcOe27wZuvK-92" source="I1Cy414jXjcOe27wZuvK-131" target="I1Cy414jXjcOe27wZuvK-130">
          <mxGeometry relative="1" as="geometry">
            <Array as="points">
              <mxPoint x="146" y="150" />
              <mxPoint x="298" y="150" />
            </Array>
          </mxGeometry>
        </mxCell>
        <mxCell id="I1Cy414jXjcOe27wZuvK-137" style="edgeStyle=orthogonalEdgeStyle;rounded=0;orthogonalLoop=1;jettySize=auto;html=1;exitX=0.5;exitY=0;exitDx=0;exitDy=0;startArrow=classic;startFill=1;endArrow=none;endFill=0;" edge="1" parent="I1Cy414jXjcOe27wZuvK-92" source="I1Cy414jXjcOe27wZuvK-133">
          <mxGeometry relative="1" as="geometry">
            <mxPoint x="525.5" y="154.82" as="sourcePoint" />
            <mxPoint x="298" y="120" as="targetPoint" />
            <Array as="points">
              <mxPoint x="526" y="150" />
              <mxPoint x="298" y="150" />
            </Array>
          </mxGeometry>
        </mxCell>
        <mxCell id="I1Cy414jXjcOe27wZuvK-138" value="" style="group" vertex="1" connectable="0" parent="I1Cy414jXjcOe27wZuvK-92">
          <mxGeometry x="480" y="20" width="199.66" height="120" as="geometry" />
        </mxCell>
        <mxCell id="I1Cy414jXjcOe27wZuvK-139" value="" style="rounded=1;whiteSpace=wrap;html=1;dashed=1;" vertex="1" parent="I1Cy414jXjcOe27wZuvK-138">
          <mxGeometry x="-50" width="249.66" height="120" as="geometry" />
        </mxCell>
        <mxCell id="I1Cy414jXjcOe27wZuvK-142" value="Country" style="rounded=0;whiteSpace=wrap;html=1;" vertex="1" parent="I1Cy414jXjcOe27wZuvK-138">
          <mxGeometry x="-30" y="40" width="81" height="30" as="geometry" />
        </mxCell>
        <mxCell id="I1Cy414jXjcOe27wZuvK-143" value="Region" style="rounded=0;whiteSpace=wrap;html=1;" vertex="1" parent="I1Cy414jXjcOe27wZuvK-138">
          <mxGeometry x="100" y="40" width="81" height="30" as="geometry" />
        </mxCell>
        <mxCell id="I1Cy414jXjcOe27wZuvK-144" value="SelectedCountry" style="rounded=0;whiteSpace=wrap;html=1;" vertex="1" parent="I1Cy414jXjcOe27wZuvK-138">
          <mxGeometry x="19.83" y="80" width="110" height="30" as="geometry" />
        </mxCell>
        <mxCell id="I1Cy414jXjcOe27wZuvK-95" value="" style="group" vertex="1" connectable="0" parent="1">
          <mxGeometry x="1060" y="730" width="730" height="610" as="geometry" />
        </mxCell>
        <mxCell id="I1Cy414jXjcOe27wZuvK-96" value="" style="rounded=1;whiteSpace=wrap;html=1;dashed=1;" vertex="1" parent="I1Cy414jXjcOe27wZuvK-95">
          <mxGeometry x="-10" width="730" height="530" as="geometry" />
        </mxCell>
        <mxCell id="I1Cy414jXjcOe27wZuvK-97" value="&lt;font style=&quot;font-size: 14px;&quot;&gt;&lt;b&gt;presentation&lt;/b&gt;&lt;/font&gt;" style="text;html=1;strokeColor=none;fillColor=none;align=center;verticalAlign=middle;whiteSpace=wrap;rounded=0;" vertex="1" parent="I1Cy414jXjcOe27wZuvK-95">
          <mxGeometry x="46.183673469387756" y="38.12499999999999" width="89.38775510204081" height="57.1875" as="geometry" />
        </mxCell>
        <mxCell id="I1Cy414jXjcOe27wZuvK-102" value="CountryFilterViewModel" style="rounded=0;whiteSpace=wrap;html=1;" vertex="1" parent="I1Cy414jXjcOe27wZuvK-95">
          <mxGeometry x="77" y="210" width="184.02" height="83.13" as="geometry" />
        </mxCell>
        <mxCell id="I1Cy414jXjcOe27wZuvK-103" value="RegionFilterViewModel" style="rounded=0;whiteSpace=wrap;html=1;" vertex="1" parent="I1Cy414jXjcOe27wZuvK-95">
          <mxGeometry x="77" y="320" width="183" height="85" as="geometry" />
        </mxCell>
        <mxCell id="I1Cy414jXjcOe27wZuvK-106" value="" style="group" vertex="1" connectable="0" parent="I1Cy414jXjcOe27wZuvK-95">
          <mxGeometry x="450" y="10" width="199.66" height="77.27" as="geometry" />
        </mxCell>
        <mxCell id="I1Cy414jXjcOe27wZuvK-104" value="" style="rounded=1;whiteSpace=wrap;html=1;dashed=1;" vertex="1" parent="I1Cy414jXjcOe27wZuvK-106">
          <mxGeometry width="199.66" height="77.27" as="geometry" />
        </mxCell>
        <mxCell id="I1Cy414jXjcOe27wZuvK-105" value="&lt;b&gt;Models&lt;/b&gt;" style="text;html=1;strokeColor=none;fillColor=none;align=center;verticalAlign=middle;whiteSpace=wrap;rounded=0;" vertex="1" parent="I1Cy414jXjcOe27wZuvK-106">
          <mxGeometry width="66.18563535911603" height="21.07363636363636" as="geometry" />
        </mxCell>
        <mxCell id="I1Cy414jXjcOe27wZuvK-107" value="BaseFilterScreenState" style="text;html=1;strokeColor=none;fillColor=none;align=center;verticalAlign=middle;whiteSpace=wrap;rounded=0;" vertex="1" parent="I1Cy414jXjcOe27wZuvK-106">
          <mxGeometry x="22.61342541436464" y="28.09818181818182" width="154.43314917127074" height="21.07363636363636" as="geometry" />
        </mxCell>
        <mxCell id="I1Cy414jXjcOe27wZuvK-120" value="BaseFilterFragment" style="rounded=0;whiteSpace=wrap;html=1;" vertex="1" parent="I1Cy414jXjcOe27wZuvK-95">
          <mxGeometry x="300" y="95.31" width="200" height="84.66" as="geometry" />
        </mxCell>
        <mxCell id="I1Cy414jXjcOe27wZuvK-121" value="CountryFilterFragment" style="rounded=0;whiteSpace=wrap;html=1;" vertex="1" parent="I1Cy414jXjcOe27wZuvK-95">
          <mxGeometry x="300" y="210" width="200" height="83.13" as="geometry" />
        </mxCell>
        <mxCell id="I1Cy414jXjcOe27wZuvK-122" value="RegionFilterFragment" style="rounded=0;whiteSpace=wrap;html=1;" vertex="1" parent="I1Cy414jXjcOe27wZuvK-95">
          <mxGeometry x="300" y="320" width="195" height="84.99" as="geometry" />
        </mxCell>
        <mxCell id="I1Cy414jXjcOe27wZuvK-123" value="" style="group" vertex="1" connectable="0" parent="I1Cy414jXjcOe27wZuvK-95">
          <mxGeometry x="68.67000000000007" y="420" width="600" height="160" as="geometry" />
        </mxCell>
        <mxCell id="I1Cy414jXjcOe27wZuvK-124" value="" style="rounded=1;whiteSpace=wrap;html=1;dashed=1;" vertex="1" parent="I1Cy414jXjcOe27wZuvK-123">
          <mxGeometry width="600" height="90" as="geometry" />
        </mxCell>
        <mxCell id="I1Cy414jXjcOe27wZuvK-125" value="&lt;b&gt;adapters&lt;/b&gt;" style="text;html=1;strokeColor=none;fillColor=none;align=center;verticalAlign=middle;whiteSpace=wrap;rounded=0;" vertex="1" parent="I1Cy414jXjcOe27wZuvK-123">
          <mxGeometry x="11.33" width="66.18563535911603" height="21.07363636363636" as="geometry" />
        </mxCell>
        <mxCell id="I1Cy414jXjcOe27wZuvK-127" value="FilterAdapter" style="rounded=0;whiteSpace=wrap;html=1;" vertex="1" parent="I1Cy414jXjcOe27wZuvK-123">
          <mxGeometry x="11.33" y="30" width="178.67" height="40" as="geometry" />
        </mxCell>
        <mxCell id="I1Cy414jXjcOe27wZuvK-128" value="CountryViewHolder" style="rounded=0;whiteSpace=wrap;html=1;" vertex="1" parent="I1Cy414jXjcOe27wZuvK-123">
          <mxGeometry x="210.66999999999993" y="30" width="178.67" height="40" as="geometry" />
        </mxCell>
        <mxCell id="I1Cy414jXjcOe27wZuvK-129" value="RegionViewHolder" style="rounded=0;whiteSpace=wrap;html=1;" vertex="1" parent="I1Cy414jXjcOe27wZuvK-123">
          <mxGeometry x="411.3299999999999" y="30" width="178.67" height="40" as="geometry" />
        </mxCell>
        <mxCell id="I1Cy414jXjcOe27wZuvK-101" value="BaseFilterViewModel" style="rounded=0;whiteSpace=wrap;html=1;" vertex="1" parent="I1Cy414jXjcOe27wZuvK-95">
          <mxGeometry x="75.98" y="95.31" width="184.02" height="85.63" as="geometry" />
        </mxCell>
        <mxCell id="I1Cy414jXjcOe27wZuvK-151" value="" style="endArrow=classic;html=1;rounded=0;" edge="1" parent="I1Cy414jXjcOe27wZuvK-95" source="I1Cy414jXjcOe27wZuvK-101">
          <mxGeometry width="50" height="50" relative="1" as="geometry">
            <mxPoint x="-800" y="-541.875" as="sourcePoint" />
            <mxPoint x="300" y="138" as="targetPoint" />
          </mxGeometry>
        </mxCell>
        <mxCell id="I1Cy414jXjcOe27wZuvK-152" value="" style="endArrow=classic;html=1;rounded=0;exitX=1;exitY=0.5;exitDx=0;exitDy=0;entryX=0;entryY=0.5;entryDx=0;entryDy=0;" edge="1" parent="I1Cy414jXjcOe27wZuvK-95" source="I1Cy414jXjcOe27wZuvK-102" target="I1Cy414jXjcOe27wZuvK-121">
          <mxGeometry width="50" height="50" relative="1" as="geometry">
            <mxPoint x="270" y="270" as="sourcePoint" />
            <mxPoint x="320" y="220" as="targetPoint" />
          </mxGeometry>
        </mxCell>
        <mxCell id="I1Cy414jXjcOe27wZuvK-153" value="" style="endArrow=classic;html=1;rounded=0;exitX=1;exitY=0.5;exitDx=0;exitDy=0;entryX=0;entryY=0.5;entryDx=0;entryDy=0;" edge="1" parent="I1Cy414jXjcOe27wZuvK-95" source="I1Cy414jXjcOe27wZuvK-103" target="I1Cy414jXjcOe27wZuvK-122">
          <mxGeometry width="50" height="50" relative="1" as="geometry">
            <mxPoint x="290" y="390" as="sourcePoint" />
            <mxPoint x="340" y="340" as="targetPoint" />
          </mxGeometry>
        </mxCell>
        <mxCell id="I1Cy414jXjcOe27wZuvK-140" value="&lt;b&gt;Models&lt;/b&gt;" style="text;html=1;strokeColor=none;fillColor=none;align=center;verticalAlign=middle;whiteSpace=wrap;rounded=0;" vertex="1" parent="1">
          <mxGeometry x="1470" y="390" width="66.18563535911603" height="21.07363636363636" as="geometry" />
        </mxCell>
        <mxCell id="I1Cy414jXjcOe27wZuvK-148" value="" style="endArrow=classic;html=1;rounded=0;exitX=0.5;exitY=1;exitDx=0;exitDy=0;entryX=0.5;entryY=0;entryDx=0;entryDy=0;fillColor=#dae8fc;strokeColor=#6c8ebf;strokeWidth=2;" edge="1" parent="1" source="I1Cy414jXjcOe27wZuvK-131" target="I1Cy414jXjcOe27wZuvK-101">
          <mxGeometry width="50" height="50" relative="1" as="geometry">
            <mxPoint x="1180" y="780" as="sourcePoint" />
            <mxPoint x="1230" y="730" as="targetPoint" />
            <Array as="points">
              <mxPoint x="1186" y="670" />
              <mxPoint x="1270" y="670" />
              <mxPoint x="1350" y="670" />
              <mxPoint x="1350" y="740" />
              <mxPoint x="1228" y="740" />
            </Array>
          </mxGeometry>
        </mxCell>
        <mxCell id="I1Cy414jXjcOe27wZuvK-149" value="" style="endArrow=classic;html=1;rounded=0;exitX=0.5;exitY=1;exitDx=0;exitDy=0;entryX=0.5;entryY=0;entryDx=0;entryDy=0;fillColor=#d5e8d4;strokeColor=#82b366;strokeWidth=2;" edge="1" parent="1" source="I1Cy414jXjcOe27wZuvK-132" target="I1Cy414jXjcOe27wZuvK-102">
          <mxGeometry width="50" height="50" relative="1" as="geometry">
            <mxPoint x="1340" y="830" as="sourcePoint" />
            <mxPoint x="1390" y="780" as="targetPoint" />
            <Array as="points">
              <mxPoint x="1376" y="720" />
              <mxPoint x="1080" y="720" />
              <mxPoint x="1080" y="920" />
              <mxPoint x="1229" y="920" />
            </Array>
          </mxGeometry>
        </mxCell>
        <mxCell id="I1Cy414jXjcOe27wZuvK-150" value="" style="endArrow=classic;html=1;rounded=0;exitX=0.5;exitY=1;exitDx=0;exitDy=0;entryX=0.5;entryY=0;entryDx=0;entryDy=0;fillColor=#ffe6cc;strokeColor=#d79b00;strokeWidth=2;" edge="1" parent="1" source="I1Cy414jXjcOe27wZuvK-133" target="I1Cy414jXjcOe27wZuvK-103">
          <mxGeometry width="50" height="50" relative="1" as="geometry">
            <mxPoint x="1540" y="830" as="sourcePoint" />
            <mxPoint x="1590" y="780" as="targetPoint" />
            <Array as="points">
              <mxPoint x="1566" y="700" />
              <mxPoint x="1040" y="700" />
              <mxPoint x="1040" y="820" />
              <mxPoint x="1040" y="930" />
              <mxPoint x="1040" y="1030" />
              <mxPoint x="1230" y="1030" />
            </Array>
          </mxGeometry>
        </mxCell>
      </root>
    </mxGraphModel>
  </diagram>
</mxfile>
